# xmcd
#
# Track frame offsets: 
#        150
#        44371
#        73708
#        90399
#        106341
#        139793
#        189063
#        207911
#        240806
#        266762
#
# Disc length: 3739 seconds
#
# Revision: 2
# Processed by: cddbd v1.5.2PL0 Copyright (c) Steve Scherf et al.
# Submitted via: ExactAudioCopy v0.99pb3
#
DISCID=7f0e990a
DTITLE=Chet Baker - Live In Paris 1960-63-Live In Nice 1975
DYEAR=1988
DGENRE=Jazz
TTITLE0=Porgy And Bess
TTITLE1=Milestones
TTITLE2=Autumn In New York
TTITLE3=Marilyn
TTITLE4=For Minors Only
TTITLE5=Stella By Starlight
TTITLE6=Dear Old Stockholm
TTITLE7=Mister B
TTITLE8=I Waited For You
TTITLE9=There Will Never Another You
EXTD=
EXTT0=
EXTT1=
EXTT2=
EXTT3=
EXTT4=
EXTT5=
EXTT6=
EXTT7=
EXTT8=
EXTT9=
PLAYORDER=
